<svg version="1.0" xmlns="http://www.w3.org/2000/svg"
 width="2000.000000pt" height="600.000000pt" viewBox="0 0 2000.000000 600.000000"
 preserveAspectRatio="xMidYMid meet">

<g transform="translate(0.000000,600.000000) scale(0.100000,-0.100000)"
fill="#000000" stroke="none">
<path d="M9020 3970 c-256 -47 -491 -255 -590 -525 -134 -363 -49 -780 211
-1032 116 -112 244 -175 401 -198 86 -13 110 -13 200 1 56 8 107 19 113 23 5
5 28 14 50 21 22 7 47 18 55 25 8 7 29 19 45 28 86 43 235 207 291 319 14 29
32 64 39 78 24 47 54 176 65 281 24 237 -28 451 -157 646 -139 210 -343 329
-578 338 -55 2 -120 0 -145 -5z m296 -398 c103 -52 167 -119 217 -227 141
-299 6 -666 -276 -756 -152 -48 -326 2 -435 126 -52 59 -109 176 -123 251 -16
83 -6 255 19 325 53 151 180 275 316 310 17 5 74 7 127 5 82 -3 104 -8 155
-34z"/>
<path d="M10845 3973 c-69 -9 -193 -58 -270 -106 -106 -66 -224 -198 -288
-322 -42 -81 -57 -117 -57 -134 0 -10 -9 -44 -21 -77 -18 -52 -21 -82 -21
-239 0 -157 2 -188 21 -244 11 -35 21 -70 21 -77 0 -30 87 -195 140 -264 133
-174 281 -264 482 -295 77 -11 115 -12 180 -4 83 11 229 59 259 85 8 8 19 14
23 14 12 0 77 50 129 99 173 164 284 437 275 676 l-3 80 -360 3 c-198 1 -370
0 -382 -3 -22 -5 -23 -9 -23 -129 0 -69 3 -131 6 -140 5 -14 32 -16 195 -16
217 0 219 -1 178 -77 -29 -52 -113 -140 -160 -168 -72 -41 -151 -65 -214 -65
-69 0 -175 29 -217 60 -15 11 -30 20 -33 20 -9 0 -67 60 -102 105 -64 83 -103
212 -103 337 0 215 100 389 275 481 57 30 65 31 175 31 108 -1 119 -3 175 -32
79 -41 138 -92 183 -161 21 -31 45 -57 53 -59 9 -2 43 15 75 36 32 21 66 42
74 45 53 25 105 66 108 85 5 35 -65 139 -159 237 -100 103 -192 159 -330 200
-80 24 -187 31 -284 18z"/>
<path d="M7122 3948 c-8 -8 -12 -57 -12 -153 0 -96 4 -145 12 -153 8 -8 62
-12 179 -12 131 0 169 -3 178 -14 9 -10 12 -192 11 -695 0 -665 0 -680 19
-691 23 -12 270 -13 289 -1 11 6 13 134 13 677 -1 525 2 674 12 694 13 25 13
25 182 28 103 1 174 7 182 13 16 14 19 270 3 300 -10 18 -27 19 -533 19 -394
0 -526 -3 -535 -12z"/>
<path d="M12423 3954 c-7 -3 -33 -71 -58 -152 -25 -81 -61 -194 -79 -252 -19
-58 -44 -139 -57 -180 -12 -41 -37 -120 -55 -175 -32 -100 -52 -164 -95 -305
-12 -41 -37 -120 -55 -175 -17 -55 -44 -140 -59 -190 -15 -49 -42 -134 -60
-187 -23 -69 -29 -100 -22 -107 14 -14 286 -15 320 -2 20 8 27 21 36 63 7 29
18 71 25 93 7 22 22 66 32 98 9 32 21 60 26 63 17 11 539 6 552 -5 7 -6 20
-34 29 -63 35 -109 57 -191 57 -208 0 -41 35 -50 198 -50 121 0 154 3 158 14
3 8 -10 61 -29 117 -19 57 -45 138 -57 179 -12 41 -28 91 -35 110 -7 19 -22
69 -35 110 -12 41 -28 93 -35 115 -7 22 -25 81 -40 130 -15 50 -42 135 -60
190 -18 55 -42 134 -55 175 -12 41 -38 122 -56 180 -18 58 -43 134 -54 170
-54 174 -73 226 -88 238 -11 8 -62 12 -176 11 -89 0 -166 -3 -173 -5z m191
-436 c2 -7 14 -49 25 -93 21 -78 47 -167 76 -270 8 -27 24 -84 35 -125 11 -41
26 -90 32 -109 18 -58 1 -63 -194 -59 -91 2 -170 6 -174 11 -9 9 1 49 72 302
92 324 96 340 101 348 7 11 23 8 27 -5z"/>
<path d="M13375 3949 c-9 -14 -9 -294 -1 -308 5 -7 65 -11 182 -11 l174 0 10
-26 c7 -17 10 -275 10 -697 -1 -537 2 -672 12 -679 7 -4 78 -7 158 -5 l145 2
5 690 c3 380 9 696 13 703 6 9 54 12 182 12 148 0 174 2 179 16 8 20 8 278 0
298 -5 14 -62 16 -534 16 -368 0 -531 -3 -535 -11z"/>
<path d="M14676 3944 c-3 -9 -6 -398 -6 -865 l0 -849 24 -6 c31 -7 282 -1 291
8 4 3 6 152 5 330 0 280 2 326 15 346 16 22 17 22 299 22 206 0 285 -3 294
-12 9 -9 12 -99 12 -344 0 -270 3 -334 14 -343 9 -8 61 -11 162 -9 l149 3 3
845 c1 465 0 855 -3 868 -5 22 -8 22 -155 22 -137 0 -150 -2 -160 -19 -6 -13
-10 -140 -10 -345 0 -196 -4 -327 -10 -331 -5 -3 -139 -6 -297 -6 -261 0 -289
2 -300 18 -10 13 -13 96 -13 338 0 236 -3 324 -12 333 -8 8 -57 12 -154 12
-120 0 -143 -2 -148 -16z"/>
<path d="M16350 3941 c-7 -13 -10 -300 -10 -860 0 -821 0 -841 19 -851 30 -15
863 -14 879 2 15 15 17 281 2 309 -10 18 -24 19 -285 19 -191 0 -276 3 -281
11 -10 17 -4 333 7 344 6 6 108 12 242 15 l232 5 5 145 c4 103 2 149 -7 159
-9 11 -53 13 -220 12 -124 -1 -220 2 -236 8 l-27 11 0 168 c0 117 4 172 12
180 9 9 85 12 280 12 254 0 268 1 278 19 5 11 10 77 10 146 0 69 -5 135 -10
146 -10 18 -26 19 -445 19 -419 0 -435 -1 -445 -19z"/>
<path d="M17580 3941 c-7 -13 -10 -300 -10 -860 0 -821 0 -841 19 -851 24 -12
270 -13 290 -1 11 7 13 62 12 307 -1 165 2 313 7 329 8 29 11 30 69 33 57 3
62 1 82 -26 11 -16 25 -40 31 -53 5 -13 14 -31 20 -39 19 -31 120 -212 120
-216 0 -3 34 -64 75 -135 41 -72 75 -133 75 -136 0 -4 11 -21 26 -40 l25 -33
157 0 c86 0 164 5 172 10 13 9 13 13 -1 37 -9 16 -61 103 -115 196 -54 92
-104 175 -109 185 -6 9 -43 72 -83 139 -39 67 -72 131 -72 141 0 13 11 24 31
31 43 15 164 141 196 205 31 60 62 191 63 259 1 149 -73 331 -170 420 -69 64
-126 93 -210 106 -36 6 -205 11 -377 11 -299 0 -313 -1 -323 -19z m655 -336
c24 -12 53 -39 73 -69 28 -42 32 -56 32 -114 0 -80 -25 -138 -78 -179 -36 -28
-39 -28 -193 -31 -128 -3 -158 -1 -168 12 -19 22 -11 367 8 390 13 16 31 17
150 14 111 -2 143 -7 176 -23z"/>
<path d="M5510 3750 c-448 -83 -829 -260 -1145 -531 -88 -74 -105 -92 -228
-229 -108 -122 -212 -293 -310 -510 -106 -233 -150 -655 -99 -935 19 -99 43
-203 70 -291 19 -62 94 -210 120 -238 81 -85 228 -87 320 -2 58 52 69 142 28
220 -38 71 -84 211 -106 320 -28 139 -29 410 -1 552 22 114 63 244 92 290 10
17 19 36 19 41 0 23 96 182 164 272 185 243 453 441 768 564 160 63 243 86
433 117 72 12 148 30 171 40 133 58 138 237 10 310 -45 27 -60 30 -131 29 -44
-1 -123 -9 -175 -19z"/>
<path d="M5625 2757 c-97 -32 -153 -81 -192 -166 -20 -43 -24 -65 -20 -100 13
-107 89 -197 194 -232 168 -56 346 16 408 164 48 114 -20 254 -154 315 -66 30
-175 39 -236 19z"/>
<path d="M5061 1911 c-75 -27 -130 -68 -166 -126 -27 -43 -30 -57 -30 -124 0
-63 5 -83 24 -115 67 -108 145 -148 282 -148 92 1 145 21 208 77 56 51 79 92
87 156 11 99 -25 177 -109 235 -86 59 -204 77 -296 45z"/>
</g>
</svg>
