<?xml version="1.0" standalone="no"?>
<!DOCTYPE svg PUBLIC "-//W3C//DTD SVG 20010904//EN"
 "http://www.w3.org/TR/2001/REC-SVG-20010904/DTD/svg10.dtd">
<svg version="1.0" xmlns="http://www.w3.org/2000/svg"
 width="73.000000pt" height="70.000000pt" viewBox="0 0 73.000000 70.000000"
 preserveAspectRatio="xMidYMid meet">

<g transform="translate(0.000000,70.000000) scale(0.100000,-0.100000)"
fill="#e02c53" stroke="none">
<path d="M275 686 c-68 -17 -109 -40 -165 -92 -104 -97 -135 -252 -76 -382 71
-155 250 -240 416 -198 118 30 218 118 255 225 19 57 19 165 0 222 -37 105
-136 194 -250 224 -69 18 -111 18 -180 1z m235 -38 c212 -97 262 -368 98 -529
-23 -23 -68 -54 -98 -68 -47 -22 -69 -26 -150 -26 -89 0 -99 2 -158 34 -116
63 -182 169 -182 291 0 143 89 261 238 317 59 21 185 12 252 -19z"/>
<path d="M406 546 l3 -31 -84 0 c-72 0 -86 -3 -107 -22 -13 -13 -38 -28 -56
-34 -37 -13 -42 -37 -13 -63 13 -12 39 -18 80 -19 55 -2 64 -5 95 -37 34 -35
61 -90 36 -75 -7 4 -15 2 -19 -4 -4 -7 -21 -13 -37 -14 -22 -2 -29 2 -28 16 1
10 -5 17 -17 17 -20 0 -24 -17 -13 -57 14 -51 117 -32 154 29 19 32 20 32 20
8 0 -14 -9 -40 -20 -58 l-21 -34 23 7 23 7 -24 -26 c-49 -52 19 -25 82 33 l28
26 -11 -29 c-10 -27 -9 -28 6 -15 10 8 25 32 35 53 16 36 18 37 21 15 4 -24 5
-23 17 6 30 69 22 157 -17 205 l-18 22 -31 -31 c-21 -21 -41 -31 -60 -30 -15
0 -21 3 -13 6 58 21 78 88 38 130 l-22 23 -25 -22 c-14 -13 -20 -16 -13 -8 15
18 15 27 -1 33 -9 3 -12 -4 -11 -27z"/>
</g>
</svg>
